<?xml version="1.0" encoding="UTF-8" standalone="no"?>
<!-- Created with Inkscape (http://www.inkscape.org/) -->

<svg
   xmlns:dc="http://purl.org/dc/elements/1.1/"
   xmlns:cc="http://creativecommons.org/ns#"
   xmlns:rdf="http://www.w3.org/1999/02/22-rdf-syntax-ns#"
   xmlns:svg="http://www.w3.org/2000/svg"
   xmlns="http://www.w3.org/2000/svg"
   xmlns:xlink="http://www.w3.org/1999/xlink"
   xmlns:sodipodi="http://sodipodi.sourceforge.net/DTD/sodipodi-0.dtd"
   xmlns:inkscape="http://www.inkscape.org/namespaces/inkscape"
   width="100pt"
   height="100pt"
   viewBox="0 0 125 124.99999"
   id="svg2"
   version="1.1"
   inkscape:version="0.92.4 (5da689c313, 2019-01-14)"
   sodipodi:docname="DDBwebmail_Logo.svg"
   inkscape:export-filename="D:\GitHub\ddbgo\images\DDBgo_Logo_96.png"
   inkscape:export-xdpi="69.120003"
   inkscape:export-ydpi="69.120003">
  <defs
     id="defs4" />
  <sodipodi:namedview
     id="base"
     pagecolor="#ffffff"
     bordercolor="#666666"
     borderopacity="1.0"
     inkscape:pageopacity="0.0"
     inkscape:pageshadow="2"
     inkscape:zoom="1.4"
     inkscape:cx="-116.66526"
     inkscape:cy="77.680303"
     inkscape:document-units="px"
     inkscape:current-layer="g3357"
     showgrid="false"
     fit-margin-top="0"
     fit-margin-left="0"
     fit-margin-right="0"
     fit-margin-bottom="0"
     inkscape:window-width="1920"
     inkscape:window-height="1015"
     inkscape:window-x="0"
     inkscape:window-y="0"
     inkscape:window-maximized="1"
     units="pt" />
  <metadata
     id="metadata7">
    <rdf:RDF>
      <cc:Work
         rdf:about="">
        <dc:format>image/svg+xml</dc:format>
        <dc:type
           rdf:resource="http://purl.org/dc/dcmitype/StillImage" />
        <dc:title />
      </cc:Work>
    </rdf:RDF>
  </metadata>
  <g
     inkscape:label="Ebene 1"
     inkscape:groupmode="layer"
     id="layer1"
     transform="translate(4.2720002e-8,-927.36222)">
    <g
       id="Pusteblume"
       transform="matrix(0.96151607,0,0,0.96151607,-9.5228552,907.55884)" />
    <g
       id="g3466"
       transform="translate(0.91249193,-3.879723)">
      <g
         transform="matrix(0.96151607,0,0,0.96151607,-9.5228552,919.78645)"
         id="g3340">
        <defs
           id="defs3342">
          <path
             inkscape:connector-curvature="0"
             id="SVGID_1_"
             d="m 99.781,42.236 c 2.409,0.883 4.659,-0.556 6.568,-1.994 2.513,-1.891 4.438,-3.782 5.38,-0.397 -6.682,9.08 -24.789,2.834 -4.781,9.558 -1.85,-0.53 -4.506,-0.251 -7.163,0.027 -4.456,0.466 -8.912,0.934 -9.555,-2.413 5.237,-9.944 25.43,-17.517 21.499,-28.67 -6.702,14.91 -14.435,14.121 -26.279,23.889 0.523,-5.722 -1.625,-5.26 -4.265,-4.796 -2.77,0.484 -6.084,0.97 -7.435,-5.683 -0.085,-0.457 -0.366,-0.305 -0.384,0.165 -0.398,13.128 -2.739,8.27 -4.66,3.413 C 67.67,32.719 66.757,30.1 66.337,30.296 66.015,30.436 66.66,42.492 63.946,44.629 58.624,48.831 44.238,42.27 42.448,35.071 33.144,35.973 27.56,31.194 25.723,20.738 c 0,0 -2.693,-4.791 -7.169,-4.788 C 5.364,36.977 42.577,45.393 49.612,49.403 44.362,50.199 19.326,43.458 12.132,34.234 11.5,36.1 10.253,36.075 9.904,37.019 l 0,1.339 c 0.179,0.836 0.63,2.045 1.487,3.878 13.392,28.646 62.664,32.863 64.504,16.725 -2.994,26.299 -5.398,37.297 -15.26,56.902 -0.564,-0.011 -1.804,0.007 -2.667,0.225 -8.122,2.089 -11.598,13.538 -11.728,20.294 -0.009,0.396 -0.071,1.218 0.152,1.5 l 0.784,0 c 0.239,-0.103 0.465,-0.239 0.591,-0.302 22.296,-10.765 21.193,-51.235 32.9,-73.843 2.068,-3.98 -6.998,-9.915 0,-11.942 -0.487,10.047 9.079,10.029 9.563,19.109 -1.907,0.483 -4.302,-0.813 -6.117,-2.108 -2.616,-1.865 -4.031,-3.731 -1.049,-0.276 4.207,9.296 19.592,6.82 26.363,4.347 4.964,-1.814 5.296,-3.627 -6.804,-0.804 -5.09,-6.058 -16.652,-4.86 -17.172,-15.491 3.548,2.98 11.359,2.977 19.926,2.975 6.801,-0.003 14.075,-0.005 20.07,1.484 -7.325,0.138 -10.08,1.655 -16.701,4.465 27.136,8.597 13.925,-3.879 29.263,-13.7 -5.746,-2.972 -12.187,-0.788 -18.375,1.396 -6.449,2.272 -12.625,4.547 -17.456,0.988 15.299,-3.043 37.481,-11.839 33.443,-26.277 -5.431,9.161 -16.099,13.924 -21.501,11.942 2.802,-9.202 21.164,-15.38 16.729,-23.896 -4.202,13.361 -26.44,21.306 -31.068,26.287" />
        </defs>
        <clipPath
           id="SVGID_2_">
          <use
             height="100%"
             width="100%"
             y="0"
             x="0"
             style="overflow:visible"
             xlink:href="#SVGID_1_"
             overflow="visible"
             id="use3346" />
        </clipPath>
        <linearGradient
           id="SVGID_3_"
           gradientUnits="userSpaceOnUse"
           x1="-159.23241"
           y1="342.73679"
           x2="-158.08881"
           y2="342.73679"
           gradientTransform="matrix(112.1526,0,0,-112.1526,17868.072,38515.801)">
          <stop
             offset="0"
             style="stop-color:#575656"
             id="stop3349" />
          <stop
             offset="0"
             style="stop-color:#333333"
             id="stop3351" />
          <stop
             offset="1"
             style="stop-color:#9C9C9C"
             id="stop3353" />
        </linearGradient>
        <rect
           style="fill:url(#SVGID_3_)"
           x="5.3639998"
           y="15.946"
           clip-path="url(#SVGID_2_)"
           width="134.29401"
           height="121.936"
           id="rect3355" />
      </g>
      <g
         transform="matrix(0.96151607,0,0,0.96151607,-30.237141,907.55885)"
         id="g3357">
        <g
           id="g3359"
           style="fill-rule:nonzero;fill:#37beff;fill-opacity:1">
          <defs
             id="defs3361">
            <path
               inkscape:connector-curvature="0"
               id="SVGID_4_"
               d="m 102.244,122.529 c 0,15.503 12.569,28.07 28.072,28.07 15.504,0 28.073,-12.567 28.073,-28.07 0,-15.506 -12.569,-28.072 -28.073,-28.072 -15.503,0 -28.072,12.566 -28.072,28.072" />
          </defs>
          <clipPath
             id="SVGID_5_">
            <use
               height="100%"
               width="100%"
               y="0"
               x="0"
               style="overflow:visible"
               xlink:href="#SVGID_4_"
               overflow="visible"
               id="use3365" />
          </clipPath>
          <linearGradient
             id="SVGID_6_"
             gradientUnits="userSpaceOnUse"
             x1="-166.0713"
             y1="345.88821"
             x2="-164.92821"
             y2="345.88821"
             gradientTransform="matrix(49.1186,0,0,-49.1186,8259.4453,17112.096)">
            <stop
               offset="0"
               style="stop-color:#404f54"
               id="stop3368" />
            <stop
               offset="1"
               style="stop-color:#37beff"
               id="stop3370" />
          </linearGradient>
          <rect
             style="fill:#37beff;fill-rule:nonzero;fill-opacity:1"
             x="102.244"
             y="94.457001"
             clip-path="url(#SVGID_5_)"
             width="56.146"
             height="56.143002"
             id="rect3372" />
        </g>
        <path
           inkscape:connector-curvature="0"
           id="XMLID_234_"
           d="m 148.3764,108.75848 h -35.8002 c -1.15273,0 -2.08784,0.9349 -2.08784,2.08788 v 21.9751 c 0,1.15283 0.93511,2.08784 2.08784,2.08784 h 35.80013 c 1.15297,0 2.08796,-0.93501 2.08796,-2.08784 v -21.9751 c 1e-4,-1.15298 -0.93499,-2.08788 -2.08789,-2.08788 z m -1.36901,20.72315 c 0.5661,0.47045 0.64405,1.31055 0.17428,1.87656 -0.26346,0.31741 -0.64348,0.48137 -1.02595,0.48137 -0.29997,0 -0.60187,-0.10069 -0.85041,-0.30706 l -9.3972,-7.8 -4.5807,3.80166 c -0.24664,0.205 -0.54909,0.30709 -0.85107,0.30709 -0.30178,0 -0.60446,-0.10211 -0.85109,-0.30709 l -4.58053,-3.80166 -9.39729,7.8 c -0.56552,0.47038 -1.40534,0.39293 -1.87652,-0.17431 -0.46966,-0.56601 -0.39166,-1.40611 0.17446,-1.87656 l 9.01281,-7.48115 -9.01281,-7.48117 c -0.56612,-0.47041 -0.64412,-1.31053 -0.17446,-1.87654 0.47118,-0.56601 1.311,-0.64351 1.87652,-0.17431 l 14.82884,12.30838 14.82904,-12.30846 c 0.56602,-0.46916 1.4066,-0.39166 1.87636,0.17434 0.46977,0.56606 0.39175,1.40608 -0.17428,1.87654 l -9.01282,7.48114 z"
           style="fill:#ffffff;fill-opacity:1;stroke-width:0.08090826" />
      </g>
    </g>
  </g>
</svg>
